<svg xmlns="http://www.w3.org/2000/svg" width="147" height="28" viewBox="0 0 147 28">
  <g fill="none" fill-rule="evenodd">
    <path fill="#09A5DB" d="M1.51165,0 L25.7369,0 C26.5715,0 27.2504,0.671185 27.2504,1.50214 L27.2504,4.16909 C27.2504,4.99651 26.5716,5.67141 25.7369,5.67141 L1.51165,5.67141 C0.676996,5.67141 0,4.99657 0,4.16909 L0,1.50214 C0,0.671185 0.676996,0 1.51165,0 Z M1.51165,14.887 L25.7369,14.887 C26.5715,14.887 27.2504,15.5599 27.2504,16.3874 L27.2504,19.058 C27.2504,19.8854 26.5716,20.5566 25.7369,20.5566 L1.51165,20.5566 C0.676996,20.5566 0,19.8854 0,19.058 L0,16.3874 C0,15.5599 0.676996,14.887 1.51165,14.887 Z M15.1376,22.3304 L1.51165,22.3304 C0.676996,22.3304 0,23.0016 0,23.8309 L0,26.4997 C0,27.3272 0.676996,28 1.51165,28 L15.1377,28 C15.9759,28 16.6511,27.3272 16.6511,26.4997 L16.6511,23.8309 C16.6511,23.0016 15.9759,22.3304 15.1376,22.3304 Z M1.51165,7.44171 L27.2504,7.44171 C28.0868,7.44171 28.7619,8.11469 28.7619,8.94379 L28.7619,11.6127 C28.7619,12.4401 28.0868,13.1148 27.2504,13.1148 L1.51165,13.1148 C0.676996,13.1148 0,12.4401 0,11.6127 L0,8.94379 C0,8.11469 0.676996,7.44171 1.51165,7.44171 Z"/>
    <path fill="#011B33" d="M146.8444,18.75043 L142.6494,12.64053 L146.2394,7.94661 C146.4274,7.67607 146.4754,7.41666 146.3894,7.17291 C146.3264,6.99734 146.1574,6.78541 145.7224,6.78541 L142.8844,6.78541 C142.7244,6.78541 142.5674,6.825 142.4174,6.89778 C142.2564,6.96738 142.1114,7.10983 142.0014,7.2964 L139.1324,11.27523 L138.4344,11.27523 L138.4344,1.873114 C138.4344,1.673738 138.3664,1.509228 138.2364,1.368397 C138.1054,1.2402458 137.9304,1.16753 137.7344,1.16753 L135.079,1.16753 C134.8853,1.16753 134.7135,1.2403068 134.5716,1.366844 C134.4282,1.502951 134.3526,1.667522 134.3526,1.873114 L134.3526,19.22983 C134.3526,19.42903 134.4282,19.60313 134.5716,19.73293 C134.7135,19.86733 134.8853,19.93373 135.079,19.93373 L137.7344,19.93373 C137.9304,19.93373 138.1054,19.86733 138.2364,19.72973 C138.3664,19.59673 138.4344,19.42903 138.4344,19.22983 L138.4344,14.63243 L139.2024,14.63243 L142.3354,19.38643 C142.5574,19.75023 142.8664,19.93383 143.2514,19.93383 L146.2234,19.93383 C146.6744,19.93383 146.8624,19.72193 146.9374,19.54143 C147.0454,19.28673 147.0134,19.03043 146.8444,18.75043 Z M103.0449,15.82053 C103.2843,15.83313 103.4877,15.96133 103.6327,16.19553 L104.5549,17.67323 C104.8022,18.06083 104.766,18.45003 104.4633,18.80283 C104.0062,19.28053 103.4311,19.63813 102.747,19.87393 C102.0614,20.10643 101.3332,20.22503 100.5672,20.22503 C100.0157,20.22503 99.4545,20.14603 98.9062,19.98143 C98.3561,19.82003 97.8674,19.56213 97.4497,19.22673 C97.0322,18.89133 96.6869,18.44373 96.4252,17.91203 C96.1636,17.37413 96.0266,16.72073 96.0266,15.96143 L96.0266,10.27714 L94.4961,10.27714 C94.2944,10.27714 94.1226,10.20107 93.9887,10.0429 C93.8626,9.89424 93.7932,9.725 93.7932,9.54613 L93.7932,7.51795 C93.7932,7.32019 93.8626,7.15096 93.9887,7.01006 C94.1257,6.85985 94.2944,6.78546 94.4961,6.78546 L96.0266,6.78546 L96.0266,3.53131 C96.0266,3.31615 96.1069,3.13566 96.2456,3.0044 C96.3906,2.86991 96.5623,2.80503 96.7563,2.80503 L99.4371,2.80503 C99.6137,2.80503 99.7761,2.86991 99.9227,3.0044 C100.0677,3.13573 100.1371,3.31615 100.1371,3.53131 L100.1371,6.78546 L103.5887,6.78546 C103.7872,6.78546 103.9592,6.85985 104.1135,6.99738 C104.2681,7.14145 104.3419,7.32019 104.3419,7.51795 L104.3419,9.54613 C104.3419,9.72817 104.2681,9.89747 104.1182,10.04924 C103.9637,10.20107 103.7872,10.27714 103.5887,10.27714 L100.1371,10.27714 L100.1371,15.05963 C100.1371,15.35543 100.1781,15.58953 100.2552,15.76353 C100.3356,15.93453 100.4271,16.06893 100.5404,16.15913 C100.6524,16.24923 100.7785,16.31583 100.9013,16.34113 C101.0385,16.37593 101.1662,16.38863 101.2765,16.38863 C101.4058,16.38863 101.5633,16.36953 101.751,16.31583 C101.9416,16.26513 102.1418,16.17343 102.3593,16.04043 C102.5862,15.88703 102.8211,15.80793 103.0449,15.82053 Z M92.0389,13.01393 C91.6701,12.69123 91.2274,12.42853 90.7355,12.23243 C90.2439,12.03633 89.7204,11.88123 89.172,11.77683 L87.1499,11.37963 C86.6313,11.28323 86.2705,11.15187 86.0671,10.98575 C85.8858,10.84181 85.796,10.67569 85.796,10.47159 C85.796,10.25804 85.9237,10.08085 86.1727,9.92418 C86.4469,9.75662 86.8285,9.67104 87.3013,9.67104 C87.823,9.67104 88.3336,9.7739 88.8111,9.97638 C89.2949,10.18216 89.7489,10.41621 90.1445,10.6773 C90.7339,11.03796 91.2336,10.99047 91.5945,10.57289 L92.5654,9.46377 C92.7641,9.24538 92.8681,9.00815 92.8681,8.77087 C92.8681,8.52252 92.7418,8.29468 92.4993,8.08741 C92.0879,7.73142 91.437,7.35336 90.5654,6.98475 C89.6939,6.6098 88.5968,6.41994 87.3014,6.41994 C86.4517,6.41994 85.6669,6.53392 84.9733,6.7553 C84.2753,6.97997 83.6777,7.29003 83.194,7.67604 C82.7053,8.07156 82.3208,8.5319 82.0576,9.06197 C81.7975,9.58714 81.6619,10.16301 81.6619,10.7627 C81.6619,11.85263 81.9961,12.74013 82.6503,13.40313 C83.3043,14.05013 84.1774,14.49143 85.2506,14.70663 L87.3517,15.15763 C87.9491,15.27613 88.4029,15.41233 88.6977,15.56413 C88.953,15.69393 89.0759,15.88063 89.0759,16.14153 C89.0759,16.37583 88.953,16.58303 88.7008,16.77123 C88.436,16.97373 88.0183,17.07343 87.4619,17.07343 C86.8552,17.07343 86.3019,16.94833 85.8038,16.70473 C85.3044,16.45963 84.8503,16.16363 84.4516,15.81413 C84.264,15.66543 84.0576,15.55463 83.8416,15.48343 C83.5895,15.41063 83.3072,15.48813 82.9811,15.73823 L81.8194,16.63213 C81.4823,16.91363 81.3403,17.25373 81.4034,17.64613 C81.4603,18.02273 81.7818,18.41183 82.3822,18.85323 C82.9181,19.22663 83.6052,19.56663 84.4327,19.85773 C85.2601,20.15203 86.2294,20.30233 87.3295,20.30233 C88.2138,20.30233 89.0317,20.19013 89.7505,19.96863 C90.474,19.73753 91.1075,19.42903 91.6261,19.03353 C92.1493,18.63643 92.5559,18.14923 92.8396,17.59543 C93.1218,17.04183 93.2605,16.43583 93.2605,15.80143 C93.2605,15.18293 93.1533,14.63713 92.9312,14.17823 C92.7105,13.72423 92.4109,13.33193 92.0389,13.01393 Z M49.3015,8.29942 C48.712,7.69992 48.0232,7.22684 47.2541,6.90404 C46.48337,6.5813 45.66069,6.41996 44.80656,6.41996 C43.91287,6.41996 43.11527,6.58608 42.43915,6.92306 C41.91287,7.18091 41.46677,7.50844 41.12004,7.88973 L41.12004,7.51795 C41.12004,7.32019 41.04909,7.15096 40.92303,7.01007 C40.78576,6.85985 40.61722,6.78546 40.41538,6.78546 L37.79294,6.78546 C37.587935,6.78546 37.417669,6.85985 37.287089,7.01007 C37.1561376,7.15096 37.0884,7.32019 37.0884,7.51795 L37.0884,24.95533 C37.0884,25.15153 37.1561376,25.32243 37.288511,25.45853 C37.424044,25.59123 37.587935,25.65773 37.792875,25.65773 L40.46745,25.65773 C40.64874,25.65773 40.81114,25.59123 40.95287,25.45853 C41.09788,25.32553 41.17044,25.15633 41.17044,24.95533 L41.17044,19.00363 C41.52813,19.39913 42.00426,19.70133 42.57165,19.90863 C43.28709,20.17433 44.0216,20.30243 44.74985,20.30243 C45.6088,20.30243 46.44082,20.14273 47.2257,19.82003 C48.0155,19.48933 48.712,19.01793 49.3015,18.41203 C49.891,17.80753 50.367,17.06413 50.7089,16.21923 C51.062,15.36503 51.2323,14.39983 51.2323,13.34793 C51.2323,12.29903 51.062,11.33233 50.7089,10.47807 C50.3669,9.63153 49.891,8.89425 49.3015,8.29942 Z M46.90109,14.59923 C46.75138,14.97093 46.54013,15.30793 46.27228,15.58953 C46.00747,15.87123 45.69231,16.10053 45.33605,16.25563 C44.97979,16.41543 44.5795,16.49613 44.14925,16.49613 C43.73312,16.49613 43.33444,16.41063 42.97186,16.25563 C42.60631,16.10053 42.2815,15.87123 42.00722,15.58953 C41.73621,15.30793 41.52025,14.97103 41.37054,14.59923 C41.2207,14.22103 41.14201,13.81123 41.14201,13.37463 C41.14201,12.93803 41.2207,12.52833 41.37054,12.14693 C41.52025,11.77683 41.73621,11.44623 42.00722,11.17093 C42.2815,10.89254 42.60631,10.67091 42.97341,10.50329 C43.3407,10.3371 43.73312,10.25171 44.14919,10.25171 C44.57944,10.25171 44.97502,10.3371 45.33271,10.50329 C45.69225,10.67091 46.00734,10.8926 46.27692,11.16763 C46.54006,11.44613 46.75132,11.77683 46.90103,12.14693 C47.05087,12.52833 47.1247,12.93803 47.1247,13.37463 C47.1248,13.81123 47.05093,14.22103 46.90109,14.59923 Z M65.5889,6.78533 L62.9379,6.78533 C62.7582,6.78533 62.588,6.85973 62.4477,6.99894 C62.3074,7.14773 62.2333,7.32013 62.2333,7.51789 L62.2333,7.83902 C61.9355,7.47992 61.5303,7.1729 61.0324,6.92306 C60.364,6.58608 59.5808,6.41996 58.7077,6.41996 C57.866,6.41996 57.04,6.5813 56.2583,6.90404 C55.4703,7.22684 54.7627,7.69346 54.1559,8.29469 C53.5506,8.89425 53.0588,9.62836 52.6917,10.47801 C52.3277,11.32593 52.1432,12.29573 52.1432,13.34783 C52.1432,14.39973 52.3277,15.36493 52.6917,16.21923 C53.0589,17.06403 53.5443,17.80753 54.1432,18.41193 C54.7423,19.01783 55.4451,19.48933 56.2315,19.81993 C57.015,20.14253 57.8407,20.30243 58.6824,20.30243 C59.5541,20.30243 60.3436,20.13323 61.0198,19.80103 C61.5194,19.54933 61.9291,19.24253 62.2334,18.88493 L62.2334,19.22993 C62.2334,19.42913 62.3075,19.60333 62.4525,19.73303 C62.5944,19.86753 62.7583,19.93383 62.9379,19.93383 L65.5889,19.93383 C65.7891,19.93383 65.9562,19.86753 66.0884,19.72983 C66.2224,19.59693 66.2918,19.42913 66.2918,19.22993 L66.2918,7.51789 C66.2918,7.32013 66.224,7.1509 66.0933,7.01 C65.9625,6.85979 65.7891,6.78533 65.5889,6.78533 Z M62.0095,14.58343 C61.8599,14.97093 61.6487,15.30163 61.3871,15.57683 C61.1191,15.85523 60.7991,16.07683 60.4444,16.24453 C60.0898,16.41063 59.6863,16.49603 59.2561,16.49603 C58.8432,16.49603 58.4461,16.41063 58.0818,16.24453 C57.7163,16.07683 57.3979,15.85523 57.1285,15.57683 C56.8652,15.30793 56.6539,14.97093 56.5042,14.58343 C56.3561,14.19883 56.2804,13.79073 56.2804,13.37463 C56.2804,12.93803 56.3561,12.52833 56.5042,12.14693 C56.6539,11.77363 56.8652,11.43973 57.1285,11.16763 C57.3979,10.89254 57.7149,10.67091 58.0818,10.50329 C58.4461,10.3371 58.8432,10.25171 59.2561,10.25171 C59.6863,10.25171 60.0899,10.3371 60.4444,10.50329 C60.7991,10.67091 61.119,10.8926 61.3871,11.16763 C61.6487,11.44613 61.8599,11.77683 62.0095,12.14693 C62.1594,12.52833 62.2333,12.93803 62.2333,13.37463 C62.2333,13.79073 62.1593,14.19893 62.0095,14.58343 Z M115.5134,6.78533 L118.1628,6.78533 C118.3677,6.78533 118.5379,6.85979 118.6687,7.01 C118.7994,7.1509 118.8671,7.32013 118.8671,7.51789 L118.8671,19.22993 C118.8671,19.42913 118.7962,19.59693 118.6654,19.72983 C118.5283,19.86753 118.3614,19.93383 118.1627,19.93383 L115.5133,19.93383 C115.3321,19.93383 115.1712,19.86753 115.0294,19.73303 C114.8844,19.60333 114.8135,19.42913 114.8135,19.22993 L114.8135,18.88493 C114.5046,19.24253 114.1011,19.54933 113.5936,19.80103 C112.9191,20.13323 112.131,20.30243 111.2516,20.30243 C110.4147,20.30243 109.592,20.14253 108.807,19.81993 C108.0206,19.48933 107.316,19.01783 106.7203,18.41193 C106.1199,17.80753 105.6343,17.06403 105.2688,16.21923 C104.9031,15.36493 104.7187,14.39973 104.7187,13.34783 C104.7187,12.29573 104.9031,11.32593 105.2688,10.47801 C105.6343,9.62836 106.126,8.89425 106.7328,8.29469 C107.3398,7.69346 108.0474,7.22684 108.8354,6.90404 C109.6171,6.5813 110.443,6.41996 111.2799,6.41996 C112.1594,6.41996 112.9396,6.58608 113.6078,6.92306 C114.1059,7.1729 114.5094,7.47992 114.8136,7.83902 L114.8136,7.51789 C114.8136,7.32013 114.8845,7.14773 115.0264,6.99894 C115.1713,6.85973 115.3321,6.78533 115.5134,6.78533 Z M113.9561,15.57683 C114.2242,15.30163 114.4353,14.97093 114.5835,14.58343 C114.7348,14.19893 114.8136,13.79073 114.8136,13.37463 C114.8136,12.93803 114.7348,12.52833 114.5835,12.14693 C114.4353,11.77683 114.2242,11.44613 113.9561,11.16763 C113.693,10.8926 113.3761,10.67091 113.0154,10.50329 C112.6591,10.3371 112.2652,10.25171 111.8315,10.25171 C111.4187,10.25171 111.0246,10.3371 110.659,10.50329 C110.295,10.67091 109.9734,10.89254 109.7055,11.16763 C109.4423,11.43973 109.2311,11.77363 109.0798,12.14693 C108.9301,12.52833 108.8561,12.93803 108.8561,13.37463 C108.8561,13.79073 108.9301,14.19883 109.0798,14.58343 C109.2311,14.97093 109.4423,15.30793 109.7055,15.57683 C109.9734,15.85523 110.295,16.07683 110.659,16.24453 C111.0247,16.41063 111.4187,16.49603 111.8315,16.49603 C112.2652,16.49603 112.6591,16.41063 113.0154,16.24453 C113.3761,16.07683 113.693,15.85523 113.9561,15.57683 Z M131.2051,14.86813 L132.7259,16.02153 C132.9073,16.16383 133.038,16.34103 133.1185,16.55313 C133.2005,16.77763 133.1848,17.01033 133.0555,17.24443 C132.4974,18.13353 131.7079,18.86923 130.6991,19.43873 C129.6936,20.01303 128.4911,20.30243 127.1419,20.30243 C126.1664,20.30243 125.2333,20.12213 124.3836,19.76613 C123.5248,19.40703 122.7698,18.91033 122.1393,18.29333 C121.5042,17.67793 121.0046,16.93753 120.6499,16.10053 C120.2922,15.25583 120.1062,14.33663 120.1062,13.37473 C120.1062,12.40973 120.2922,11.48893 120.6499,10.6394 C121.0046,9.78503 121.5042,9.04626 122.1393,8.42769 C122.7698,7.80756 123.5248,7.31552 124.3836,6.95791 C125.2333,6.60204 126.1664,6.42007 127.1419,6.42007 C128.4911,6.42007 129.6936,6.71118 130.6991,7.2791 C131.7079,7.85498 132.4973,8.58909 133.0507,9.47024 C133.1847,9.70753 133.2004,9.94476 133.1184,10.179 C133.038,10.40684 132.9009,10.57762 132.718,10.70105 L131.1988,11.85593 C130.9151,12.08373 130.6424,12.14693 130.3997,12.05223 C130.1838,11.96353 130.0009,11.83073 129.8464,11.65353 C129.4698,11.20883 129.0773,10.85916 128.6817,10.61398 C128.2924,10.37514 127.7959,10.25171 127.2017,10.25171 C126.7652,10.25171 126.3649,10.3371 126.0118,10.50329 C125.6508,10.67091 125.3356,10.89254 125.0708,11.16763 C124.803,11.43973 124.5966,11.77363 124.4561,12.14693 C124.3143,12.52353 124.245,12.93173 124.245,13.37463 C124.245,13.79393 124.3143,14.19433 124.4561,14.57383 C124.6013,14.94563 124.8077,15.28263 125.0708,15.56423 C125.3388,15.85233 125.6508,16.07213 126.007,16.23033 C126.3649,16.38863 126.7652,16.46763 127.2017,16.46763 C127.7958,16.46763 128.2986,16.34743 128.6817,16.11013 C129.0773,15.86483 129.4698,15.51363 129.8432,15.07063 C130.0009,14.89343 130.1838,14.75893 130.3997,14.67193 C130.6375,14.57383 130.9151,14.63713 131.2051,14.86813 Z M77.6997,6.78538 L80.669,6.78538 C81.0725,6.78538 81.2459,6.96891 81.32,7.12397 C81.41,7.32801 81.41,7.57797 81.3107,7.88014 L76.9481,21.98883 C76.5587,23.22763 75.9188,24.22123 75.052,24.95053 C74.1788,25.68623 73.0441,26.05003 71.6854,26.05003 C70.8817,26.05003 70.1251,25.93143 69.441,25.68923 C68.7492,25.44563 68.1628,25.10553 67.6948,24.66893 C67.4473,24.45373 67.2329,24.06613 67.6191,23.47293 L68.5632,22.09803 C68.7445,21.82123 68.9682,21.67883 69.2283,21.67883 L69.2599,21.67883 C69.504,21.68993 69.7296,21.76423 69.9281,21.90183 C70.1346,22.05843 70.3678,22.19143 70.6262,22.31003 C70.8816,22.42233 71.1448,22.48243 71.4222,22.48243 C71.7595,22.48243 72.0464,22.38753 72.3032,22.19613 C72.5585,22.00793 72.7555,21.72623 72.8818,21.36713 L73.2616,20.30233 L73.3923,19.93373 L73.3654,19.93373 L72.9053,19.93373 L72.8029,19.93373 L71.8036,19.93373 C71.5718,19.93373 71.3843,19.86733 71.2424,19.73283 C71.1116,19.61273 71.0138,19.46073 70.9525,19.28033 L67.192,7.88008 C67.1147,7.62234 67.1147,7.37226 67.1966,7.16026 C67.2896,6.91191 67.5402,6.78532 67.9388,6.78532 L71.0138,6.78532 C71.2345,6.78532 71.4158,6.87077 71.5419,7.02745 C71.6475,7.16971 71.7263,7.33117 71.7656,7.50836 L74.1219,15.60693 L74.6577,15.60693 L76.847,7.50519 C76.8879,7.328 76.9762,7.16033 77.107,7.02105 C77.2472,6.87083 77.4507,6.78538 77.6997,6.78538 Z"/>
  </g>
</svg>
